<?xml version="1.0" encoding="utf-8"?>
<!-- Generator: Adobe Illustrator 23.1.0, SVG Export Plug-In . SVG Version: 6.00 Build 0)  -->
<svg version="1.1" id="Слой_1" xmlns="http://www.w3.org/2000/svg" xmlns:xlink="http://www.w3.org/1999/xlink" x="0px" y="0px"
	 viewBox="0 0 415.2 268.9" style="enable-background:new 0 0 415.2 268.9;" xml:space="preserve">
<style type="text/css">
	.st0{fill:none;stroke:#F6F6F6;stroke-width:2;stroke-miterlimit:10;}
</style>
<g>
	<g>
		<g>
			<line class="st0" x1="208.1" y1="134.4" x2="208.1" y2="0"/>
			<line class="st0" x1="208.1" y1="268.9" x2="208.1" y2="134.4"/>
		</g>
		<circle class="st0" cx="208.1" cy="134.4" r="37.6"/>
		<g>
			<path class="st0" d="M82.6,134.4c0,12.6-6.3,23.8-15.8,30.6v-61.3C76.3,110.6,82.6,121.8,82.6,134.4z"/>
			<polyline class="st0" points="66.7,165.1 66.7,214.2 1.5,214.2 1.5,170.7 1.5,156.2 1.5,148.9 1.5,120 1.5,112.7 1.5,98.2 
				1.5,54.7 66.7,54.7 66.7,103.8 			"/>
			<rect x="1.5" y="98.2" class="st0" width="21.8" height="72.4"/>
		</g>
		<g>
			<path class="st0" d="M333.6,134.4c0,12.6,6.3,23.8,15.8,30.6v-61.3C339.9,110.6,333.6,121.8,333.6,134.4z"/>
			<polyline class="st0" points="349.4,103.8 349.4,54.7 414.7,54.7 414.7,98.2 414.7,112.7 414.7,120 414.7,148.9 414.7,156.2 
				414.7,170.7 414.7,214.2 349.4,214.2 349.4,165.1 			"/>
			<rect x="392.9" y="98.2" class="st0" width="21.8" height="72.4"/>
		</g>
	</g>
	<circle class="st0" cx="208.1" cy="134.4" r="1.6"/>
</g>
</svg>
