<?xml version="1.0" encoding="utf-8"?>
<!-- Generator: Adobe Illustrator 23.1.0, SVG Export Plug-In . SVG Version: 6.00 Build 0)  -->
<svg version="1.1" id="Слой_1" xmlns="http://www.w3.org/2000/svg" xmlns:xlink="http://www.w3.org/1999/xlink" x="0px" y="0px"
	 viewBox="0 0 512 512" style="enable-background:new 0 0 512 512;" xml:space="preserve">
<style type="text/css">
	.st0{fill:#010202;stroke:#000000;stroke-width:2;stroke-miterlimit:10;}
	.st1{fill:#66965E;}
	.st2{fill:#85BD79;}
	.st3{fill:none;stroke:#F6F6F6;stroke-width:2;stroke-miterlimit:10;}
	.st4{fill:#FFFFFF;}
	.st5{fill:url(#SVGID_1_);stroke:#000000;stroke-width:2;stroke-miterlimit:10;}
	.st6{fill:url(#SVGID_2_);stroke:#000000;stroke-width:2;stroke-miterlimit:10;}
</style>
<g id="Слой_4">
	<rect x="51.4" y="191.8" class="st0" width="423.2" height="277.9"/>
</g>
<g>
	<rect x="55.5" y="196.3" class="st1" width="415.2" height="268.9"/>
	<g>
		<rect x="55.5" y="196.3" class="st2" width="14.8" height="268.9"/>
		<rect x="85.1" y="196.3" class="st2" width="14.8" height="268.9"/>
		<g>
			<rect x="114.7" y="196.3" class="st2" width="14.8" height="268.9"/>
			<rect x="144.3" y="196.3" class="st2" width="14.8" height="268.9"/>
		</g>
		<g>
			<rect x="173.9" y="196.3" class="st2" width="14.8" height="268.9"/>
			<rect x="203.6" y="196.3" class="st2" width="14.8" height="268.9"/>
		</g>
		<g>
			<rect x="233" y="196.3" class="st2" width="14.8" height="268.9"/>
			<rect x="262.6" y="196.3" class="st2" width="14.8" height="268.9"/>
		</g>
	</g>
	<rect x="292.3" y="196.3" class="st2" width="14.8" height="268.9"/>
	<rect x="321.9" y="196.3" class="st2" width="14.8" height="268.9"/>
	<g>
		<rect x="351.5" y="196.3" class="st2" width="14.8" height="268.9"/>
		<rect x="381.1" y="196.3" class="st2" width="14.8" height="268.9"/>
	</g>
	<g>
		<rect x="410.8" y="196.3" class="st2" width="14.8" height="268.9"/>
		<rect x="440.4" y="196.3" class="st2" width="14.8" height="268.9"/>
	</g>
</g>
<g>
	<g>
		<line class="st3" x1="263.1" y1="330.7" x2="263.1" y2="196.3"/>
		<line class="st3" x1="263.1" y1="465.2" x2="263.1" y2="330.7"/>
	</g>
	<circle class="st3" cx="263.1" cy="330.7" r="37.6"/>
	<polyline class="st3" points="55.5,352.5 55.5,345.2 55.5,316.3 55.5,309 	"/>
	<g>
		<path class="st3" d="M137.6,330.7c0,12.6-6.3,23.8-15.8,30.6v-61.3C131.3,306.9,137.6,318.1,137.6,330.7z"/>
		<polyline class="st3" points="121.7,361.4 121.7,410.5 56.5,410.5 56.5,367 56.5,352.5 56.5,345.2 56.5,316.3 56.5,309 
			56.5,294.5 56.5,251 121.7,251 121.7,300.1 		"/>
		<rect x="56.5" y="294.5" class="st3" width="21.8" height="72.4"/>
	</g>
	<g>
		<path class="st3" d="M388.6,330.7c0,12.6,6.3,23.8,15.8,30.6v-61.3C394.9,306.9,388.6,318.1,388.6,330.7z"/>
		<polyline class="st3" points="404.4,300.1 404.4,251 469.7,251 469.7,294.5 469.7,309 469.7,316.3 469.7,345.2 469.7,352.5 
			469.7,367 469.7,410.5 404.4,410.5 404.4,361.4 		"/>
		<rect x="447.9" y="294.5" class="st3" width="21.8" height="72.4"/>
	</g>
	<circle class="st3" cx="263.1" cy="330.7" r="1.6"/>
	<rect x="55.5" y="17.5" class="st4" width="154.8" height="170"/>
</g>
<g id="Слой_3">
	
		<linearGradient id="SVGID_1_" gradientUnits="userSpaceOnUse" x1="470.68" y1="181.295" x2="484.36" y2="181.295" gradientTransform="matrix(1 0 0 -1 0 512)">
		<stop  offset="0" style="stop-color:#66965E"/>
		<stop  offset="1" style="stop-color:#FFFFFF"/>
	</linearGradient>
	<path class="st5" d="M470.7,365.3h3.3c5.7,0,10.4-4.7,10.4-10.4v-48.5c0-5.7-4.7-10.4-10.4-10.4h-3.3"/>
	
		<linearGradient id="SVGID_2_" gradientUnits="userSpaceOnUse" x1="41.81" y1="181.275" x2="55.49" y2="181.275" gradientTransform="matrix(1 0 0 -1 0 512)">
		<stop  offset="0" style="stop-color:#FFFFFF"/>
		<stop  offset="1" style="stop-color:#66965E"/>
	</linearGradient>
	<path class="st6" d="M55.5,296.1h-3.3c-5.7,0-10.4,4.7-10.4,10.4V355c0,5.7,4.7,10.4,10.4,10.4h3.3"/>
</g>
</svg>
