<?xml version="1.0" encoding="utf-8"?>
<!-- Generator: Adobe Illustrator 23.1.0, SVG Export Plug-In . SVG Version: 6.00 Build 0)  -->
<svg version="1.1" id="Слой_1" xmlns="http://www.w3.org/2000/svg" xmlns:xlink="http://www.w3.org/1999/xlink" x="0px" y="0px"
	 viewBox="0 0 415.2 268.9" style="enable-background:new 0 0 415.2 268.9;" xml:space="preserve">
<style type="text/css">
	.st0{fill:#66965E;}
	.st1{fill:#86BE7A;}
</style>
<g>
	<rect x="0.5" y="0" class="st0" width="415.2" height="268.9"/>
	<g>
		<g>
			<rect x="0.5" y="0" class="st1" width="14.8" height="268.9"/>
			<rect x="30.1" y="0" class="st1" width="14.8" height="268.9"/>
			<g>
				<rect x="59.7" y="0" class="st1" width="14.8" height="268.9"/>
				<rect x="89.3" y="0" class="st1" width="14.8" height="268.9"/>
			</g>
			<g>
				<rect x="118.9" y="0" class="st1" width="14.8" height="268.9"/>
				<rect x="148.6" y="0" class="st1" width="14.8" height="268.9"/>
			</g>
			<g>
				<rect x="178" y="0" class="st1" width="14.8" height="268.9"/>
				<rect x="207.6" y="0" class="st1" width="14.8" height="268.9"/>
			</g>
		</g>
		<rect x="237.3" y="0" class="st1" width="14.8" height="268.9"/>
		<rect x="266.9" y="0" class="st1" width="14.8" height="268.9"/>
		<g>
			<rect x="296.5" y="0" class="st1" width="14.8" height="268.9"/>
			<rect x="326.1" y="0" class="st1" width="14.8" height="268.9"/>
		</g>
		<g>
			<rect x="355.8" y="0" class="st1" width="14.8" height="268.9"/>
			<rect x="385.4" y="0" class="st1" width="14.8" height="268.9"/>
		</g>
	</g>
</g>
</svg>
