<svg xmlns="http://www.w3.org/2000/svg" xmlns:xlink="http://www.w3.org/1999/xlink" version="1.1" style="" xml:space="preserve" width="415.20001220703125" height="266.8999938964844"><rect id="backgroundrect" width="100%" height="100%" x="0" y="0" fill="none" stroke="none"/>
<style type="text/css">
	.st0{fill:#010202;stroke:#000000;stroke-width:2;stroke-miterlimit:10;}
	.st1{fill:#66965E;}
	.st2{fill:#85BD79;}
	.st3{fill:none;stroke:#F6F6F6;stroke-width:2;stroke-miterlimit:10;}
	.st4{fill:#FFFFFF;}
</style>



<g class="currentLayer" style=""><title>Layer 1</title><g id="svg_2" class="">
	<rect x="0.5867043733596802" y="-1.3878540992736816" class="st1" width="415.20001220703125" height="268.8999938964844" id="svg_3"/>
	<g id="svg_4">
		<rect x="0.5867043733596802" y="-1.3878540992736816" class="st2" width="14.800000190734863" height="268.8999938964844" id="svg_5"/>
		<rect x="30.186702847480774" y="-1.3878540992736816" class="st2" width="14.800000190734863" height="268.8999938964844" id="svg_6"/>
		<g id="svg_7">
			<rect x="59.78670132160187" y="-1.3878540992736816" class="st2" width="14.800000190734863" height="268.8999938964844" id="svg_8"/>
			<rect x="89.38670742511749" y="-1.3878540992736816" class="st2" width="14.800000190734863" height="268.8999938964844" id="svg_9"/>
		</g>
		<g id="svg_10">
			<rect x="118.98669826984406" y="-1.3878540992736816" class="st2" width="14.800000190734863" height="268.8999938964844" id="svg_11"/>
			<rect x="148.6867104768753" y="-1.3878540992736816" class="st2" width="14.800000190734863" height="268.8999938964844" id="svg_12"/>
		</g>
		<g id="svg_13">
			<rect x="178.08670437335968" y="-1.3878540992736816" class="st2" width="14.800000190734863" height="268.8999938964844" id="svg_14"/>
			<rect x="207.6867104768753" y="-1.3878540992736816" class="st2" width="14.800000190734863" height="268.8999938964844" id="svg_15"/>
		</g>
	</g>
	<rect x="237.38669216632843" y="-1.3878540992736816" class="st2" width="14.800000190734863" height="268.8999938964844" id="svg_16"/>
	<rect x="266.98669826984406" y="-1.3878540992736816" class="st2" width="14.800000190734863" height="268.8999938964844" id="svg_17"/>
	<g id="svg_18">
		<rect x="296.5867043733597" y="-1.3878540992736816" class="st2" width="14.800000190734863" height="268.8999938964844" id="svg_19"/>
		<rect x="326.1867104768753" y="-1.3878540992736816" class="st2" width="14.800000190734863" height="268.8999938964844" id="svg_20"/>
	</g>
	<g id="svg_21">
		<rect x="355.88669216632843" y="-1.3878540992736816" class="st2" width="14.800000190734863" height="268.8999938964844" id="svg_22"/>
		<rect x="385.48669826984406" y="-1.3878540992736816" class="st2" width="14.800000190734863" height="268.8999938964844" id="svg_23"/>
	</g>
</g>
	<g id="svg_25" class="">
		<line class="st3" x1="207.60867708921432" y1="131.85608929395676" x2="207.60867708921432" y2="-2.5439351201057434" id="svg_26"/>
		<line class="st3" x1="207.60867708921432" y1="266.35608929395676" x2="207.60867708921432" y2="131.85608929395676" id="svg_27"/>
	</g>
	<circle class="st3" cx="207.03064423799515" cy="123.1855788230896" r="37.599998474121094" id="svg_28"/>
	<g id="svg_29" class="">
		<path class="st3" d="M82.1086709856987,133.59017701148986 c0,12.6 -6.3,23.8 -15.8,30.6 v-61.3 C75.80867098569871,109.79017701148985 82.1086709856987,120.99017701148989 82.1086709856987,133.59017701148986 z" id="svg_30"/>
		<polyline class="st3" points="66.20866394042969,164.29018914699554 66.20866394042969,213.39019525051117 1.0086746215820312,213.39019525051117 1.0086746215820312,169.89019525051117 1.0086746215820312,155.39019525051117 1.0086746215820312,148.09020745754242 1.0086746215820312,119.19017541408539 1.0086746215820312,111.89018762111664 1.0086746215820312,97.39018762111664 1.0086746215820312,53.89018762111664 66.20866394042969,53.89018762111664 66.20866394042969,102.99019372463226 " id="svg_31"/>
		<rect x="1.0086714625358582" y="97.39018523693085" class="st3" width="21.799999237060547" height="72.4000015258789" id="svg_32"/>
	</g>
	<g id="svg_33" class="">
		<path class="st3" d="M334.26474038362505,134.16821546554564 c0,12.6 6.3,23.8 15.8,30.6 v-61.3 C340.564740383625,110.36821546554563 334.26474038362505,121.56821546554568 334.26474038362505,134.16821546554564 z" id="svg_34"/>
		<polyline class="st3" points="350.0647302865982,103.56823360919952 350.0647302865982,54.4682275056839 415.3647485971451,54.4682275056839 415.3647485971451,97.9682275056839 415.3647485971451,112.4682275056839 415.3647485971451,119.76821529865265 415.3647485971451,148.66823971271515 415.3647485971451,155.9682275056839 415.3647485971451,170.4682275056839 415.3647485971451,213.9682275056839 350.0647302865982,213.9682275056839 350.0647302865982,164.86822140216827 " id="svg_35"/>
		<rect x="393.5647194981575" y="97.96822369098663" class="st3" width="21.799999237060547" height="72.4000015258789" id="svg_36"/>
	</g>
	<circle class="st3 selected" cx="207.6086774468422" cy="122.60753512382507" r="1.600000023841858" id="svg_37"/>
	
</g></svg>